<svg xmlns="http://www.w3.org/2000/svg" width="1200" height="760" viewBox="0 0 1200 760">
  <defs>
    <linearGradient id="bg" x2="1" y2="1">
      <stop stop-color="#473b31"/>
      <stop offset=".56" stop-color="#211d19"/>
      <stop offset="1" stop-color="#100f0e"/>
    </linearGradient>
    <linearGradient id="leather" x2="1" y2="1">
      <stop stop-color="#d4b88d"/>
      <stop offset="1" stop-color="#69513b"/>
    </linearGradient>
  </defs>
  <rect width="1200" height="760" fill="url(#bg)"/>
  <rect x="48" y="42" width="1104" height="676" rx="18" fill="#171411" stroke="#67553c"/>
  <text x="92" y="107" fill="#eadfc9" font-family="Georgia,serif" font-size="24" letter-spacing="8">AUREVANE</text>
  <text x="814" y="104" fill="#b8aa94" font-family="Arial,sans-serif" font-size="12" letter-spacing="3">THE EDIT  ·  COLLECTIONS  ·  CONCIERGE</text>
  <path d="M88 135h1024" stroke="#41372a"/>
  <text x="96" y="218" fill="#c7aa77" font-family="Arial,sans-serif" font-size="13" letter-spacing="5">THE AUREVANE EDIT — SEASON 2026</text>
  <text x="92" y="314" fill="#f1e8da" font-family="Georgia,serif" font-size="72">Luxury,</text>
  <text x="94" y="392" fill="#d7bd91" font-family="Georgia,serif" font-size="72" font-style="italic">reimagined.</text>
  <text x="96" y="440" fill="#b7ab99" font-family="Arial,sans-serif" font-size="16">Objects of character. Designed for a life of distinction.</text>
  <rect x="96" y="484" width="188" height="50" rx="25" fill="#c5a66d"/>
  <text x="130" y="514" fill="#17130d" font-family="Arial,sans-serif" font-size="12" letter-spacing="2">EXPLORE COLLECTION</text>
  <rect x="711" y="176" width="286" height="420" rx="143" fill="#30271f" stroke="#9a8056"/>
  <path d="M780 350c0-74 49-112 74-112s74 38 74 112l28 34v155H750V384z" fill="url(#leather)" stroke="#dfc9a4" stroke-width="3"/>
  <path d="M820 287c0-58 14-88 34-88s34 30 34 88" fill="none" stroke="#dfc9a4" stroke-width="7"/>
  <circle cx="854" cy="419" r="9" fill="#ac8955"/>
  <text x="98" y="658" fill="#988b77" font-family="Arial,sans-serif" font-size="12" letter-spacing="4">HANDBAGS  /  TIMEPIECES  /  FOOTWEAR  /  OBJECTS</text>
</svg>
