<svg xmlns="http://www.w3.org/2000/svg" width="1200" height="760" viewBox="0 0 1200 760">
  <defs>
    <linearGradient id="bg" x2="1" y2="1">
      <stop stop-color="#1b242a"/>
      <stop offset="1" stop-color="#0c0c0c"/>
    </linearGradient>
    <linearGradient id="screen" x2="1" y2="1">
      <stop stop-color="#515e64"/>
      <stop offset="1" stop-color="#161c20"/>
    </linearGradient>
  </defs>
  <rect width="1200" height="760" fill="url(#bg)"/>
  <rect x="48" y="42" width="1104" height="676" rx="18" fill="#101416" stroke="#343c3c"/>
  <text x="92" y="103" fill="#e5e6e3" font-family="Arial,sans-serif" font-size="22" font-weight="700" letter-spacing="4">HAIDER STILLBOK</text>
  <text x="92" y="129" fill="#96a0a2" font-family="Arial,sans-serif" font-size="11" letter-spacing="3">PREMIUM BUSINESS LAPTOPS</text>
  <text x="824" y="106" fill="#aab2b1" font-family="Arial,sans-serif" font-size="13" letter-spacing="2">LAPTOPS  WORKSTATIONS  CONTACT</text>
  <path d="M88 148h1024" stroke="#303838"/>
  <text x="96" y="235" fill="#c0a26a" font-family="Arial,sans-serif" font-size="13" letter-spacing="4">PREMIUM IMPORTED COLLECTION</text>
  <text x="92" y="315" fill="#f1f3f1" font-family="Arial,sans-serif" font-size="59" font-weight="600">Professional laptops.</text>
  <text x="94" y="382" fill="#bec4c2" font-family="Arial,sans-serif" font-size="50">Premium performance.</text>
  <text x="96" y="428" fill="#99a3a3" font-family="Arial,sans-serif" font-size="17">Business systems, selected for the work ahead.</text>
  <rect x="96" y="471" width="174" height="52" rx="7" fill="#c0a26a"/>
  <text x="126" y="503" fill="#111311" font-family="Arial,sans-serif" font-size="13" font-weight="700" letter-spacing="1">EXPLORE LAPTOPS</text>
  <rect x="666" y="187" width="407" height="282" rx="16" fill="#151a1d" stroke="#738087" stroke-width="5"/>
  <rect x="685" y="205" width="369" height="244" rx="7" fill="url(#screen)"/>
  <path d="M625 488h490l53 40q5 18-20 18H595q-24 0-17-18z" fill="#879093"/>
  <path d="M682 489h365l20 25H659z" fill="#20272a"/>
  <rect x="95" y="611" width="1010" height="58" rx="8" fill="#171c1e" stroke="#313a3c"/>
  <text x="132" y="647" fill="#c0a26a" font-family="Arial,sans-serif" font-size="13" letter-spacing="2">CAREFULLY SELECTED</text>
  <text x="424" y="647" fill="#aeb5b4" font-family="Arial,sans-serif" font-size="13" letter-spacing="2">CLEAR SPECIFICATIONS</text>
  <text x="784" y="647" fill="#aeb5b4" font-family="Arial,sans-serif" font-size="13" letter-spacing="2">DIRECT WHATSAPP SUPPORT</text>
</svg>
